<svg xmlns="http://www.w3.org/2000/svg" width="41" height="24" viewBox="0 0 41 24">
    <g fill="#FFF" fill-rule="evenodd">
        <path d="M9.15 12.458l-.464.592c.147-.19.306-.391.463-.592M36.288 0c-2.224 0-4.026 1.776-4.026 3.967 0 2.19 1.802 3.966 4.026 3.966 2.225 0 4.028-1.776 4.028-3.966C40.316 1.776 38.513 0 36.288 0M.564 8.643l.178.203c.256.295.773.304 1.148.01.372-.296.465-.795.21-1.104l-.004-.004-.604-.709c-.257-.291-.768-.263-1.137.056-.37.315-.467.795-.213 1.074l.422.474zM7.469 12.942c.34-.434.94-1.198 1.44-1.83L6.915 8.527c-.266-.355-.815-.505-1.184-.182-.36.312-.4.778-.155 1.118L4.398 7.857c-.26-.32-.774-.31-1.143.014-.371.32-.462.826-.205 1.133l2.11 2.77a.81.81 0 0 1-.339.799c-.355.247-.838.203-1.112-.079L2.5 11l-.372-.447c-.016-.018-.037-.032-.056-.05-.27-.248-.743-.24-1.092.027-.378.28-.479.739-.223 1.03l.84 1.039c1.688 1.226 3.169 1.377 3.791 1.377.383 0 1.277 0 2.082-1.033M8.686 13.05l-.105.133.105-.133M8.686 13.05l-.105.133.105-.133M9.551 11.947l-.402.51.402-.51M9.551 11.947l-.402.51.402-.51"/>
        <path d="M17.735 13.547v-.001l-.123-.217-.001-.001c-.95-1.669-3.048-5.357-3.371-5.934C14.018 7 13.93 7 13.87 7c-.194 0-.342.042-.475.096a1037.227 1037.227 0 0 0-3.845 4.852l-.001-.002c-.458.581-.963 1.223-1.262 1.608a3.735 3.735 0 0 1-1.258 1.063l-.055.029c-.063.03-.123.05-.184.076a3.515 3.515 0 0 1-.346.117l-.063.016a4.625 4.625 0 0 1-.187.045c-.022.005-.043.01-.064.013-.048.009-.097.015-.146.023-.073.01-.143.023-.216.029-.062.006-.122.007-.183.01-.066.003-.134.007-.2.007-.065 0-.131-.004-.196-.007a6.762 6.762 0 0 1-2-.396 137.136 137.136 0 0 1 2.528 3.172c.694.922 1.487 1.648 1.929 1.91 2.173 1.333 4.518.222 5.962-1.166l4.42-4.418-.294-.529zM23.361 5.417l-1.025-1.695c-.02-.03-.042-.054-.06-.081a4.699 4.699 0 0 0-.21-.279c-.006-.008-.011-.017-.018-.025a4.294 4.294 0 0 0-.555-.405c-1.85-1.12-4.24-.704-5.493.902v-.005l-1.768 2.217-.204.256c.212-.266.46-.187.696.042.137.137.27.329.393.53.082.132.16.265.228.396l.072.137c.028.055.054.11.077.16l.116.21c.877 1.652 3.159 5.52 3.174 5.547v.002l.179.307.778 1.339.005.01-.014.013c.035.051.073.103.11.153.372.497.943.95 2.05.95.478 0 1.595 0 2.47-1.35.738-1.138 1.706-2.779 2.317-3.83L23.36 5.417z"/>
        <path d="M32.153 7.933c-1.357 0-2.556.615-3.312 1.562a4.112 4.112 0 0 0-.496.736l-.344.574-.893 1.495-1.806 2.876-.071.112a5.437 5.437 0 0 1-.8.93 3.527 3.527 0 0 1-1.28.718 4.17 4.17 0 0 1-1.259.169c-.393 0-.736-.048-1.042-.125l.675 1.232.654 1.135h-.002c.027.044.046.087.072.132l.22.417c.03.066.054.128.08.191l.495.9c.503.952 1.148 1.69 2.21 2.27l.014-.003c.118.07.24.138.366.198 2.034.977 4.529.173 5.544-1.786l4.567-7.887c.047-.086.083-.176.121-.264.267-.514.423-1.09.423-1.7 0-2.144-1.851-3.882-4.136-3.882"/>
    </g>
</svg>
